0
SECTION
2
HEADER
9
$INSUNITS
70
4
9
$ACADVER
1
AC1014
9
$HANDSEED
5
FFFF
0
ENDSEC
0
SECTION
2
TABLES
0
TABLE
2
VPORT
5
8
100
AcDbSymbolTable
0
ENDTAB
0
TABLE
2
LTYPE
5
5
100
AcDbSymbolTable
0
LTYPE
5
14
100
AcDbSymbolTableRecord
100
AcDbLinetypeTableRecord
2
BYBLOCK
70
0
0
LTYPE
5
15
100
AcDbSymbolTableRecord
100
AcDbLinetypeTableRecord
2
BYLAYER
70
0
0
ENDTAB
0
TABLE
2
LAYER
5
2
100
AcDbSymbolTable
70
2
0
LAYER
5
50
100
AcDbSymbolTableRecord
100
AcDbLayerTableRecord
2
0
70
0
6
CONTINUOUS
0
ENDTAB
0
TABLE
2
STYLE
5
3
100
AcDbSymbolTable
70
1
0
STYLE
5
11
100
AcDbSymbolTableRecord
100
AcDbTextStyleTableRecord
2
STANDARD
70
0
0
ENDTAB
0
TABLE
2
VIEW
5
6
100
AcDbSymbolTable
70
0
0
ENDTAB
0
TABLE
2
UCS
5
7
100
AcDbSymbolTable
70
0
0
ENDTAB
0
TABLE
2
APPID
5
9
100
AcDbSymbolTable
70
2
0
APPID
5
12
100
AcDbSymbolTableRecord
100
AcDbRegAppTableRecord
2
ACAD
70
0
0
ENDTAB
0
TABLE
2
DIMSTYLE
5
A
100
AcDbSymbolTable
70
1
0
ENDTAB
0
TABLE
2
BLOCK_RECORD
5
1
100
AcDbSymbolTable
70
1
0
BLOCK_RECORD
5
1F
100
AcDbSymbolTableRecord
100
AcDbBlockTableRecord
2
*MODEL_SPACE
0
BLOCK_RECORD
5
1B
100
AcDbSymbolTableRecord
100
AcDbBlockTableRecord
2
*PAPER_SPACE
0
ENDTAB
0
ENDSEC
0
SECTION
2
BLOCKS
0
BLOCK
5
20
100
AcDbEntity
100
AcDbBlockBegin
2
*MODEL_SPACE
0
ENDBLK
5
21
100
AcDbEntity
100
AcDbBlockEnd
0
BLOCK
5
1C
100
AcDbEntity
100
AcDbBlockBegin
2
*PAPER_SPACE
0
ENDBLK
5
1D
100
AcDbEntity
100
AcDbBlockEnd
0
ENDSEC
0
SECTION
2
ENTITIES
0
LWPOLYLINE
5
100
100
AcDbEntity
8
0
100
AcDbPolyline
90
4
70
1
43
0.0
10
14.850000600359756
20
1.8999999999999517
10
23.860000600359747
20
1.8999999999999517
10
23.860000600359747
20
-5.35000000000006
10
14.850000600359756
20
-5.35000000000006
0
LWPOLYLINE
5
101
100
AcDbEntity
8
0
100
AcDbPolyline
90
8
70
1
43
0.0
10
12.850000600359756
20
-5.7625000000000606
10
12.850000600359756
20
2.3124999999999516
42
-0.41421356237309465
10
14.437500600359755
20
3.8999999999999519
10
24.272500600359749
20
3.8999999999999515
42
-0.41421356237309503
10
25.860000600359747
20
2.312499999999952
10
25.860000600359747
20
-5.7625000000000615
42
-0.41421356237309426
10
24.272500600359752
20
-7.3500000000000609
10
14.437500600359755
20
-7.3500000000000609
42
-0.41421356237309481
0
LWPOLYLINE
5
102
100
AcDbEntity
8
0
100
AcDbPolyline
90
2
70
1
43
0.0
10
-33.089422729264903
20
-0.49999999999994937
10
-32.667025917308258
20
-10.174477549461296
0
ARC
5
103
100
AcDbEntity
8
0
100
AcDbCircle
10
-17.199999399640248
20
-4.0499999999999963
30
-1.3877787807814457e-16
40
1.3000000000000029
210
0
220
0
230
1
100
AcDbArc
50
270
51
360
0
LINE
5
104
100
AcDbEntity
8
0
100
AcDbLine
10
-15.899999399640246
20
-4.0500000000000016
30
-1.3877787807814457e-16
11
-15.899999399640247
21
-3.4900000000000015
31
-1.3877787807814457e-16
0
ARC
5
105
100
AcDbEntity
8
0
100
AcDbCircle
10
-17.199999399640244
20
-3.4899999999999971
30
-1.3877787807814457e-16
40
1.2999999999999967
210
0
220
0
230
1
100
AcDbArc
50
0
51
89.999999999999844
0
LINE
5
106
100
AcDbEntity
8
0
100
AcDbLine
10
-17.199999399640241
20
-2.1899999999999982
30
-1.3877787807814457e-16
11
-23.549999399640246
21
-2.1899999999999893
31
-1.3877787807814457e-16
0
ARC
5
107
100
AcDbEntity
8
0
100
AcDbCircle
10
-23.549999399640246
20
-3.4899999999999887
30
1.3877787807814457e-16
40
1.2999999999999994
210
0
220
2.1350442781253018e-16
230
1
100
AcDbArc
50
90
51
180
0
LINE
5
108
100
AcDbEntity
8
0
100
AcDbLine
10
-24.849999399640247
20
-3.4899999999999887
30
1.3877787807814457e-16
11
-24.849999399640247
21
-4.0499999999999865
31
1.3877787807814457e-16
0
ARC
5
109
100
AcDbEntity
8
0
100
AcDbCircle
10
-23.549999399640246
20
-4.0499999999999892
30
1.3877787807814457e-16
40
1.2999999999999989
210
0
220
0
230
1
100
AcDbArc
50
180
51
270
0
LINE
5
110
100
AcDbEntity
8
0
100
AcDbLine
10
-23.549999399640246
20
-5.349999999999989
30
1.3877787807814457e-16
11
-20.679999399640252
21
-5.3499999999999934
31
1.3877787807814457e-16
0
LINE
5
111
100
AcDbEntity
8
0
100
AcDbLine
10
-20.669999399640247
20
-5.3499999999999934
30
1.3877787807814457e-16
11
-17.199999399640248
21
-5.3499999999999996
31
-1.3877787807814457e-16
0
LWPOLYLINE
5
112
100
AcDbEntity
8
0
100
AcDbPolyline
90
10
70
1
43
0.0
10
-20.669999399640258
20
-8.0999999999999943
10
-17.199999399640255
20
-8.0999999999999996
42
0.41421356237309481
10
-13.149999399640247
20
-4.050000000000006
10
-13.149999399640249
20
-3.4899999999999909
42
0.41421356237309431
10
-17.199999399640241
20
0.56000000000000105
10
-23.549999399640242
20
0.56000000000001215
42
0.41421356237309537
10
-27.599999399640247
20
-3.4899999999999887
10
-27.599999399640247
20
-4.0499999999999865
42
0.4142135623730962
10
-23.549999399640235
20
-8.099999999999989
10
-20.679999399640256
20
-8.0999999999999943
0
LWPOLYLINE
5
113
100
AcDbEntity
8
0
100
AcDbPolyline
90
8
70
1
43
0.0
10
-28.5
20
-11.35
10
28.5
20
-11.35
42
0.41421356237309698
10
30
20
-9.8499999999999996
10
30
20
9.8499999999999996
42
0.41421356237309698
10
28.5
20
11.35
10
-28.5
20
11.35
42
0.41421356237309698
10
-30
20
9.8499999999999996
10
-30
20
-9.8499999999999996
42
0.41421356237309698
0
ENDSEC
0
SECTION
2
OBJECTS
0
DICTIONARY
5
C
100
AcDbDictionary
3
ACAD_GROUP
350
D
3
ACAD_MLINESTYLE
350
17
0
DICTIONARY
5
D
100
AcDbDictionary
0
DICTIONARY
5
1A
330
C
100
AcDbDictionary
0
DICTIONARY
5
17
100
AcDbDictionary
0
ENDSEC
0
EOF
