%TF.GenerationSoftware,KiCad,Pcbnew,8.0.4*%
%TF.CreationDate,2024-08-01T20:41:59-04:00*%
%TF.ProjectId,esptemp8c_panel1,65737074-656d-4703-9863-5f70616e656c,rev?*%
%TF.SameCoordinates,Original*%
%TF.FileFunction,Legend,Bot*%
%TF.FilePolarity,Positive*%
%FSLAX46Y46*%
G04 Gerber Fmt 4.6, Leading zero omitted, Abs format (unit mm)*
G04 Created by KiCad (PCBNEW 8.0.4) date 2024-08-01 20:41:59*
%MOMM*%
%LPD*%
G01*
G04 APERTURE LIST*
%ADD10C,0.300000*%
G04 APERTURE END LIST*
D10*
X172055267Y-89629577D02*
X172198124Y-89701005D01*
X172198124Y-89701005D02*
X172483839Y-89701005D01*
X172483839Y-89701005D02*
X172626696Y-89629577D01*
X172626696Y-89629577D02*
X172698124Y-89486719D01*
X172698124Y-89486719D02*
X172698124Y-88915291D01*
X172698124Y-88915291D02*
X172626696Y-88772434D01*
X172626696Y-88772434D02*
X172483839Y-88701005D01*
X172483839Y-88701005D02*
X172198124Y-88701005D01*
X172198124Y-88701005D02*
X172055267Y-88772434D01*
X172055267Y-88772434D02*
X171983839Y-88915291D01*
X171983839Y-88915291D02*
X171983839Y-89058148D01*
X171983839Y-89058148D02*
X172698124Y-89201005D01*
X171412410Y-89629577D02*
X171269553Y-89701005D01*
X171269553Y-89701005D02*
X170983839Y-89701005D01*
X170983839Y-89701005D02*
X170840982Y-89629577D01*
X170840982Y-89629577D02*
X170769553Y-89486719D01*
X170769553Y-89486719D02*
X170769553Y-89415291D01*
X170769553Y-89415291D02*
X170840982Y-89272434D01*
X170840982Y-89272434D02*
X170983839Y-89201005D01*
X170983839Y-89201005D02*
X171198125Y-89201005D01*
X171198125Y-89201005D02*
X171340982Y-89129577D01*
X171340982Y-89129577D02*
X171412410Y-88986719D01*
X171412410Y-88986719D02*
X171412410Y-88915291D01*
X171412410Y-88915291D02*
X171340982Y-88772434D01*
X171340982Y-88772434D02*
X171198125Y-88701005D01*
X171198125Y-88701005D02*
X170983839Y-88701005D01*
X170983839Y-88701005D02*
X170840982Y-88772434D01*
X170126696Y-88701005D02*
X170126696Y-90201005D01*
X170126696Y-88772434D02*
X169983839Y-88701005D01*
X169983839Y-88701005D02*
X169698124Y-88701005D01*
X169698124Y-88701005D02*
X169555267Y-88772434D01*
X169555267Y-88772434D02*
X169483839Y-88843862D01*
X169483839Y-88843862D02*
X169412410Y-88986719D01*
X169412410Y-88986719D02*
X169412410Y-89415291D01*
X169412410Y-89415291D02*
X169483839Y-89558148D01*
X169483839Y-89558148D02*
X169555267Y-89629577D01*
X169555267Y-89629577D02*
X169698124Y-89701005D01*
X169698124Y-89701005D02*
X169983839Y-89701005D01*
X169983839Y-89701005D02*
X170126696Y-89629577D01*
X168983838Y-88701005D02*
X168412410Y-88701005D01*
X168769553Y-88201005D02*
X168769553Y-89486719D01*
X168769553Y-89486719D02*
X168698124Y-89629577D01*
X168698124Y-89629577D02*
X168555267Y-89701005D01*
X168555267Y-89701005D02*
X168412410Y-89701005D01*
X167340981Y-89629577D02*
X167483838Y-89701005D01*
X167483838Y-89701005D02*
X167769553Y-89701005D01*
X167769553Y-89701005D02*
X167912410Y-89629577D01*
X167912410Y-89629577D02*
X167983838Y-89486719D01*
X167983838Y-89486719D02*
X167983838Y-88915291D01*
X167983838Y-88915291D02*
X167912410Y-88772434D01*
X167912410Y-88772434D02*
X167769553Y-88701005D01*
X167769553Y-88701005D02*
X167483838Y-88701005D01*
X167483838Y-88701005D02*
X167340981Y-88772434D01*
X167340981Y-88772434D02*
X167269553Y-88915291D01*
X167269553Y-88915291D02*
X167269553Y-89058148D01*
X167269553Y-89058148D02*
X167983838Y-89201005D01*
X166626696Y-89701005D02*
X166626696Y-88701005D01*
X166626696Y-88843862D02*
X166555267Y-88772434D01*
X166555267Y-88772434D02*
X166412410Y-88701005D01*
X166412410Y-88701005D02*
X166198124Y-88701005D01*
X166198124Y-88701005D02*
X166055267Y-88772434D01*
X166055267Y-88772434D02*
X165983839Y-88915291D01*
X165983839Y-88915291D02*
X165983839Y-89701005D01*
X165983839Y-88915291D02*
X165912410Y-88772434D01*
X165912410Y-88772434D02*
X165769553Y-88701005D01*
X165769553Y-88701005D02*
X165555267Y-88701005D01*
X165555267Y-88701005D02*
X165412410Y-88772434D01*
X165412410Y-88772434D02*
X165340981Y-88915291D01*
X165340981Y-88915291D02*
X165340981Y-89701005D01*
X164626696Y-88701005D02*
X164626696Y-90201005D01*
X164626696Y-88772434D02*
X164483839Y-88701005D01*
X164483839Y-88701005D02*
X164198124Y-88701005D01*
X164198124Y-88701005D02*
X164055267Y-88772434D01*
X164055267Y-88772434D02*
X163983839Y-88843862D01*
X163983839Y-88843862D02*
X163912410Y-88986719D01*
X163912410Y-88986719D02*
X163912410Y-89415291D01*
X163912410Y-89415291D02*
X163983839Y-89558148D01*
X163983839Y-89558148D02*
X164055267Y-89629577D01*
X164055267Y-89629577D02*
X164198124Y-89701005D01*
X164198124Y-89701005D02*
X164483839Y-89701005D01*
X164483839Y-89701005D02*
X164626696Y-89629577D01*
X163055267Y-88843862D02*
X163198124Y-88772434D01*
X163198124Y-88772434D02*
X163269553Y-88701005D01*
X163269553Y-88701005D02*
X163340981Y-88558148D01*
X163340981Y-88558148D02*
X163340981Y-88486719D01*
X163340981Y-88486719D02*
X163269553Y-88343862D01*
X163269553Y-88343862D02*
X163198124Y-88272434D01*
X163198124Y-88272434D02*
X163055267Y-88201005D01*
X163055267Y-88201005D02*
X162769553Y-88201005D01*
X162769553Y-88201005D02*
X162626696Y-88272434D01*
X162626696Y-88272434D02*
X162555267Y-88343862D01*
X162555267Y-88343862D02*
X162483838Y-88486719D01*
X162483838Y-88486719D02*
X162483838Y-88558148D01*
X162483838Y-88558148D02*
X162555267Y-88701005D01*
X162555267Y-88701005D02*
X162626696Y-88772434D01*
X162626696Y-88772434D02*
X162769553Y-88843862D01*
X162769553Y-88843862D02*
X163055267Y-88843862D01*
X163055267Y-88843862D02*
X163198124Y-88915291D01*
X163198124Y-88915291D02*
X163269553Y-88986719D01*
X163269553Y-88986719D02*
X163340981Y-89129577D01*
X163340981Y-89129577D02*
X163340981Y-89415291D01*
X163340981Y-89415291D02*
X163269553Y-89558148D01*
X163269553Y-89558148D02*
X163198124Y-89629577D01*
X163198124Y-89629577D02*
X163055267Y-89701005D01*
X163055267Y-89701005D02*
X162769553Y-89701005D01*
X162769553Y-89701005D02*
X162626696Y-89629577D01*
X162626696Y-89629577D02*
X162555267Y-89558148D01*
X162555267Y-89558148D02*
X162483838Y-89415291D01*
X162483838Y-89415291D02*
X162483838Y-89129577D01*
X162483838Y-89129577D02*
X162555267Y-88986719D01*
X162555267Y-88986719D02*
X162626696Y-88915291D01*
X162626696Y-88915291D02*
X162769553Y-88843862D01*
X161198125Y-89629577D02*
X161340982Y-89701005D01*
X161340982Y-89701005D02*
X161626696Y-89701005D01*
X161626696Y-89701005D02*
X161769553Y-89629577D01*
X161769553Y-89629577D02*
X161840982Y-89558148D01*
X161840982Y-89558148D02*
X161912410Y-89415291D01*
X161912410Y-89415291D02*
X161912410Y-88986719D01*
X161912410Y-88986719D02*
X161840982Y-88843862D01*
X161840982Y-88843862D02*
X161769553Y-88772434D01*
X161769553Y-88772434D02*
X161626696Y-88701005D01*
X161626696Y-88701005D02*
X161340982Y-88701005D01*
X161340982Y-88701005D02*
X161198125Y-88772434D01*
X159555268Y-88701005D02*
X159198125Y-89701005D01*
X159198125Y-89701005D02*
X158840982Y-88701005D01*
X158340982Y-88343862D02*
X158269554Y-88272434D01*
X158269554Y-88272434D02*
X158126697Y-88201005D01*
X158126697Y-88201005D02*
X157769554Y-88201005D01*
X157769554Y-88201005D02*
X157626697Y-88272434D01*
X157626697Y-88272434D02*
X157555268Y-88343862D01*
X157555268Y-88343862D02*
X157483839Y-88486719D01*
X157483839Y-88486719D02*
X157483839Y-88629577D01*
X157483839Y-88629577D02*
X157555268Y-88843862D01*
X157555268Y-88843862D02*
X158412411Y-89701005D01*
X158412411Y-89701005D02*
X157483839Y-89701005D01*
X172019554Y-93030837D02*
X172019554Y-94102266D01*
X172019554Y-94102266D02*
X172090983Y-94316551D01*
X172090983Y-94316551D02*
X172233840Y-94459409D01*
X172233840Y-94459409D02*
X172448126Y-94530837D01*
X172448126Y-94530837D02*
X172590983Y-94530837D01*
X170590983Y-94530837D02*
X171305269Y-94530837D01*
X171305269Y-94530837D02*
X171305269Y-93030837D01*
X169233840Y-94387980D02*
X169305268Y-94459409D01*
X169305268Y-94459409D02*
X169519554Y-94530837D01*
X169519554Y-94530837D02*
X169662411Y-94530837D01*
X169662411Y-94530837D02*
X169876697Y-94459409D01*
X169876697Y-94459409D02*
X170019554Y-94316551D01*
X170019554Y-94316551D02*
X170090983Y-94173694D01*
X170090983Y-94173694D02*
X170162411Y-93887980D01*
X170162411Y-93887980D02*
X170162411Y-93673694D01*
X170162411Y-93673694D02*
X170090983Y-93387980D01*
X170090983Y-93387980D02*
X170019554Y-93245123D01*
X170019554Y-93245123D02*
X169876697Y-93102266D01*
X169876697Y-93102266D02*
X169662411Y-93030837D01*
X169662411Y-93030837D02*
X169519554Y-93030837D01*
X169519554Y-93030837D02*
X169305268Y-93102266D01*
X169305268Y-93102266D02*
X169233840Y-93173694D01*
X168162411Y-93030837D02*
X168162411Y-94102266D01*
X168162411Y-94102266D02*
X168233840Y-94316551D01*
X168233840Y-94316551D02*
X168376697Y-94459409D01*
X168376697Y-94459409D02*
X168590983Y-94530837D01*
X168590983Y-94530837D02*
X168733840Y-94530837D01*
X166733840Y-94530837D02*
X167448126Y-94530837D01*
X167448126Y-94530837D02*
X167448126Y-93030837D01*
X165376697Y-94387980D02*
X165448125Y-94459409D01*
X165448125Y-94459409D02*
X165662411Y-94530837D01*
X165662411Y-94530837D02*
X165805268Y-94530837D01*
X165805268Y-94530837D02*
X166019554Y-94459409D01*
X166019554Y-94459409D02*
X166162411Y-94316551D01*
X166162411Y-94316551D02*
X166233840Y-94173694D01*
X166233840Y-94173694D02*
X166305268Y-93887980D01*
X166305268Y-93887980D02*
X166305268Y-93673694D01*
X166305268Y-93673694D02*
X166233840Y-93387980D01*
X166233840Y-93387980D02*
X166162411Y-93245123D01*
X166162411Y-93245123D02*
X166019554Y-93102266D01*
X166019554Y-93102266D02*
X165805268Y-93030837D01*
X165805268Y-93030837D02*
X165662411Y-93030837D01*
X165662411Y-93030837D02*
X165448125Y-93102266D01*
X165448125Y-93102266D02*
X165376697Y-93173694D01*
X164305268Y-93030837D02*
X164305268Y-94102266D01*
X164305268Y-94102266D02*
X164376697Y-94316551D01*
X164376697Y-94316551D02*
X164519554Y-94459409D01*
X164519554Y-94459409D02*
X164733840Y-94530837D01*
X164733840Y-94530837D02*
X164876697Y-94530837D01*
X162876697Y-94530837D02*
X163590983Y-94530837D01*
X163590983Y-94530837D02*
X163590983Y-93030837D01*
X161519554Y-94387980D02*
X161590982Y-94459409D01*
X161590982Y-94459409D02*
X161805268Y-94530837D01*
X161805268Y-94530837D02*
X161948125Y-94530837D01*
X161948125Y-94530837D02*
X162162411Y-94459409D01*
X162162411Y-94459409D02*
X162305268Y-94316551D01*
X162305268Y-94316551D02*
X162376697Y-94173694D01*
X162376697Y-94173694D02*
X162448125Y-93887980D01*
X162448125Y-93887980D02*
X162448125Y-93673694D01*
X162448125Y-93673694D02*
X162376697Y-93387980D01*
X162376697Y-93387980D02*
X162305268Y-93245123D01*
X162305268Y-93245123D02*
X162162411Y-93102266D01*
X162162411Y-93102266D02*
X161948125Y-93030837D01*
X161948125Y-93030837D02*
X161805268Y-93030837D01*
X161805268Y-93030837D02*
X161590982Y-93102266D01*
X161590982Y-93102266D02*
X161519554Y-93173694D01*
X160448125Y-93030837D02*
X160448125Y-94102266D01*
X160448125Y-94102266D02*
X160519554Y-94316551D01*
X160519554Y-94316551D02*
X160662411Y-94459409D01*
X160662411Y-94459409D02*
X160876697Y-94530837D01*
X160876697Y-94530837D02*
X161019554Y-94530837D01*
X159019554Y-94530837D02*
X159733840Y-94530837D01*
X159733840Y-94530837D02*
X159733840Y-93030837D01*
X157662411Y-94387980D02*
X157733839Y-94459409D01*
X157733839Y-94459409D02*
X157948125Y-94530837D01*
X157948125Y-94530837D02*
X158090982Y-94530837D01*
X158090982Y-94530837D02*
X158305268Y-94459409D01*
X158305268Y-94459409D02*
X158448125Y-94316551D01*
X158448125Y-94316551D02*
X158519554Y-94173694D01*
X158519554Y-94173694D02*
X158590982Y-93887980D01*
X158590982Y-93887980D02*
X158590982Y-93673694D01*
X158590982Y-93673694D02*
X158519554Y-93387980D01*
X158519554Y-93387980D02*
X158448125Y-93245123D01*
X158448125Y-93245123D02*
X158305268Y-93102266D01*
X158305268Y-93102266D02*
X158090982Y-93030837D01*
X158090982Y-93030837D02*
X157948125Y-93030837D01*
X157948125Y-93030837D02*
X157733839Y-93102266D01*
X157733839Y-93102266D02*
X157662411Y-93173694D01*
M02*
