%TF.GenerationSoftware,KiCad,Pcbnew,8.0.4*%
%TF.CreationDate,2024-08-01T20:41:59-04:00*%
%TF.ProjectId,esptemp8c_panel1,65737074-656d-4703-9863-5f70616e656c,rev?*%
%TF.SameCoordinates,Original*%
%TF.FileFunction,Profile,NP*%
%FSLAX46Y46*%
G04 Gerber Fmt 4.6, Leading zero omitted, Abs format (unit mm)*
G04 Created by KiCad (PCBNEW 8.0.4) date 2024-08-01 20:41:59*
%MOMM*%
%LPD*%
G01*
G04 APERTURE LIST*
%TA.AperFunction,Profile*%
%ADD10C,0.100000*%
%TD*%
G04 APERTURE END LIST*
D10*
X141540984Y-99480009D02*
X144410984Y-99480009D01*
X179528484Y-87480009D02*
X189363484Y-87480009D01*
X190950984Y-97142509D02*
G75*
G02*
X189363484Y-98729984I-1587484J9D01*
G01*
X137490984Y-94870009D02*
G75*
G02*
X141540984Y-90819984I4050016J9D01*
G01*
X137490984Y-94870009D02*
X137490984Y-95430009D01*
X144410984Y-99480009D02*
X144420984Y-99480009D01*
X151940984Y-95430009D02*
G75*
G02*
X147890984Y-99479984I-4049984J9D01*
G01*
X147890984Y-90820009D02*
X141540984Y-90820009D01*
X135090983Y-81530009D02*
G75*
G02*
X136590983Y-80029983I1500017J9D01*
G01*
X189363484Y-87480009D02*
G75*
G02*
X190950991Y-89067509I16J-1587491D01*
G01*
X151940984Y-95430009D02*
X151940984Y-94870009D01*
X190950984Y-89067509D02*
X190950984Y-97142509D01*
X177940984Y-97142509D02*
X177940984Y-89067509D01*
X189363484Y-98730009D02*
X179528484Y-98730009D01*
X135090983Y-81530009D02*
X135090983Y-101230009D01*
X195090983Y-101230009D02*
X195090983Y-81530009D01*
X193590983Y-80030009D02*
X136590983Y-80030009D01*
X144420984Y-99480009D02*
X147890984Y-99480009D01*
X193590983Y-80030009D02*
G75*
G02*
X195090991Y-81530009I17J-1499991D01*
G01*
X141540984Y-99480009D02*
G75*
G02*
X137490991Y-95430009I16J4050009D01*
G01*
X177940984Y-89067509D02*
G75*
G02*
X179528484Y-87479984I1587516J9D01*
G01*
X136590983Y-102730009D02*
G75*
G02*
X135090991Y-101230009I17J1500009D01*
G01*
X136590983Y-102730009D02*
X193590983Y-102730009D01*
X195090983Y-101230009D02*
G75*
G02*
X193590983Y-102729983I-1499983J9D01*
G01*
X179528484Y-98730009D02*
G75*
G02*
X177940991Y-97142509I16J1587509D01*
G01*
X147890984Y-90820009D02*
G75*
G02*
X151940991Y-94870009I16J-4049991D01*
G01*
M02*
