%TF.GenerationSoftware,KiCad,Pcbnew,8.0.4*%
%TF.CreationDate,2024-08-02T10:12:25-04:00*%
%TF.ProjectId,esptemp8c_panel2,65737074-656d-4703-9863-5f70616e656c,rev?*%
%TF.SameCoordinates,Original*%
%TF.FileFunction,Legend,Top*%
%TF.FilePolarity,Positive*%
%FSLAX46Y46*%
G04 Gerber Fmt 4.6, Leading zero omitted, Abs format (unit mm)*
G04 Created by KiCad (PCBNEW 8.0.4) date 2024-08-02 10:12:25*
%MOMM*%
%LPD*%
G01*
G04 APERTURE LIST*
%ADD10C,0.304800*%
G04 APERTURE END LIST*
D10*
X153579894Y-86443768D02*
X153579894Y-85205673D01*
X153579894Y-85205673D02*
X154417990Y-85872340D01*
X154417990Y-85872340D02*
X154417990Y-85586625D01*
X154417990Y-85586625D02*
X154522752Y-85396149D01*
X154522752Y-85396149D02*
X154627513Y-85300911D01*
X154627513Y-85300911D02*
X154837037Y-85205673D01*
X154837037Y-85205673D02*
X155360847Y-85205673D01*
X155360847Y-85205673D02*
X155570371Y-85300911D01*
X155570371Y-85300911D02*
X155675133Y-85396149D01*
X155675133Y-85396149D02*
X155779894Y-85586625D01*
X155779894Y-85586625D02*
X155779894Y-86158054D01*
X155779894Y-86158054D02*
X155675133Y-86348530D01*
X155675133Y-86348530D02*
X155570371Y-86443768D01*
X153579894Y-84634244D02*
X155779894Y-83967578D01*
X155779894Y-83967578D02*
X153579894Y-83300911D01*
X159217010Y-86348530D02*
X159321771Y-86062816D01*
X159321771Y-86062816D02*
X159321771Y-85586625D01*
X159321771Y-85586625D02*
X159217010Y-85396149D01*
X159217010Y-85396149D02*
X159112248Y-85300911D01*
X159112248Y-85300911D02*
X158902724Y-85205673D01*
X158902724Y-85205673D02*
X158693200Y-85205673D01*
X158693200Y-85205673D02*
X158483676Y-85300911D01*
X158483676Y-85300911D02*
X158378914Y-85396149D01*
X158378914Y-85396149D02*
X158274152Y-85586625D01*
X158274152Y-85586625D02*
X158169390Y-85967578D01*
X158169390Y-85967578D02*
X158064629Y-86158054D01*
X158064629Y-86158054D02*
X157959867Y-86253292D01*
X157959867Y-86253292D02*
X157750343Y-86348530D01*
X157750343Y-86348530D02*
X157540819Y-86348530D01*
X157540819Y-86348530D02*
X157331295Y-86253292D01*
X157331295Y-86253292D02*
X157226533Y-86158054D01*
X157226533Y-86158054D02*
X157121771Y-85967578D01*
X157121771Y-85967578D02*
X157121771Y-85491387D01*
X157121771Y-85491387D02*
X157226533Y-85205673D01*
X159321771Y-84348530D02*
X157121771Y-84348530D01*
X157226533Y-82348530D02*
X157121771Y-82539006D01*
X157121771Y-82539006D02*
X157121771Y-82824720D01*
X157121771Y-82824720D02*
X157226533Y-83110435D01*
X157226533Y-83110435D02*
X157436057Y-83300911D01*
X157436057Y-83300911D02*
X157645581Y-83396149D01*
X157645581Y-83396149D02*
X158064629Y-83491387D01*
X158064629Y-83491387D02*
X158378914Y-83491387D01*
X158378914Y-83491387D02*
X158797962Y-83396149D01*
X158797962Y-83396149D02*
X159007486Y-83300911D01*
X159007486Y-83300911D02*
X159217010Y-83110435D01*
X159217010Y-83110435D02*
X159321771Y-82824720D01*
X159321771Y-82824720D02*
X159321771Y-82634244D01*
X159321771Y-82634244D02*
X159217010Y-82348530D01*
X159217010Y-82348530D02*
X159112248Y-82253292D01*
X159112248Y-82253292D02*
X158378914Y-82253292D01*
X158378914Y-82253292D02*
X158378914Y-82634244D01*
X160768410Y-85205673D02*
X160663648Y-85396149D01*
X160663648Y-85396149D02*
X160663648Y-85681863D01*
X160663648Y-85681863D02*
X160768410Y-85967578D01*
X160768410Y-85967578D02*
X160977934Y-86158054D01*
X160977934Y-86158054D02*
X161187458Y-86253292D01*
X161187458Y-86253292D02*
X161606506Y-86348530D01*
X161606506Y-86348530D02*
X161920791Y-86348530D01*
X161920791Y-86348530D02*
X162339839Y-86253292D01*
X162339839Y-86253292D02*
X162549363Y-86158054D01*
X162549363Y-86158054D02*
X162758887Y-85967578D01*
X162758887Y-85967578D02*
X162863648Y-85681863D01*
X162863648Y-85681863D02*
X162863648Y-85491387D01*
X162863648Y-85491387D02*
X162758887Y-85205673D01*
X162758887Y-85205673D02*
X162654125Y-85110435D01*
X162654125Y-85110435D02*
X161920791Y-85110435D01*
X161920791Y-85110435D02*
X161920791Y-85491387D01*
X162863648Y-84253292D02*
X160663648Y-84253292D01*
X160663648Y-84253292D02*
X162863648Y-83110435D01*
X162863648Y-83110435D02*
X160663648Y-83110435D01*
X162863648Y-82158054D02*
X160663648Y-82158054D01*
X160663648Y-82158054D02*
X160663648Y-81681864D01*
X160663648Y-81681864D02*
X160768410Y-81396149D01*
X160768410Y-81396149D02*
X160977934Y-81205673D01*
X160977934Y-81205673D02*
X161187458Y-81110435D01*
X161187458Y-81110435D02*
X161606506Y-81015197D01*
X161606506Y-81015197D02*
X161920791Y-81015197D01*
X161920791Y-81015197D02*
X162339839Y-81110435D01*
X162339839Y-81110435D02*
X162549363Y-81205673D01*
X162549363Y-81205673D02*
X162758887Y-81396149D01*
X162758887Y-81396149D02*
X162863648Y-81681864D01*
X162863648Y-81681864D02*
X162863648Y-82158054D01*
X181579894Y-86443768D02*
X181579894Y-85205673D01*
X181579894Y-85205673D02*
X182417990Y-85872340D01*
X182417990Y-85872340D02*
X182417990Y-85586625D01*
X182417990Y-85586625D02*
X182522752Y-85396149D01*
X182522752Y-85396149D02*
X182627513Y-85300911D01*
X182627513Y-85300911D02*
X182837037Y-85205673D01*
X182837037Y-85205673D02*
X183360847Y-85205673D01*
X183360847Y-85205673D02*
X183570371Y-85300911D01*
X183570371Y-85300911D02*
X183675133Y-85396149D01*
X183675133Y-85396149D02*
X183779894Y-85586625D01*
X183779894Y-85586625D02*
X183779894Y-86158054D01*
X183779894Y-86158054D02*
X183675133Y-86348530D01*
X183675133Y-86348530D02*
X183570371Y-86443768D01*
X181579894Y-84634244D02*
X183779894Y-83967578D01*
X183779894Y-83967578D02*
X181579894Y-83300911D01*
X187217010Y-86348530D02*
X187321771Y-86062816D01*
X187321771Y-86062816D02*
X187321771Y-85586625D01*
X187321771Y-85586625D02*
X187217010Y-85396149D01*
X187217010Y-85396149D02*
X187112248Y-85300911D01*
X187112248Y-85300911D02*
X186902724Y-85205673D01*
X186902724Y-85205673D02*
X186693200Y-85205673D01*
X186693200Y-85205673D02*
X186483676Y-85300911D01*
X186483676Y-85300911D02*
X186378914Y-85396149D01*
X186378914Y-85396149D02*
X186274152Y-85586625D01*
X186274152Y-85586625D02*
X186169390Y-85967578D01*
X186169390Y-85967578D02*
X186064629Y-86158054D01*
X186064629Y-86158054D02*
X185959867Y-86253292D01*
X185959867Y-86253292D02*
X185750343Y-86348530D01*
X185750343Y-86348530D02*
X185540819Y-86348530D01*
X185540819Y-86348530D02*
X185331295Y-86253292D01*
X185331295Y-86253292D02*
X185226533Y-86158054D01*
X185226533Y-86158054D02*
X185121771Y-85967578D01*
X185121771Y-85967578D02*
X185121771Y-85491387D01*
X185121771Y-85491387D02*
X185226533Y-85205673D01*
X187321771Y-84348530D02*
X185121771Y-84348530D01*
X185226533Y-82348530D02*
X185121771Y-82539006D01*
X185121771Y-82539006D02*
X185121771Y-82824720D01*
X185121771Y-82824720D02*
X185226533Y-83110435D01*
X185226533Y-83110435D02*
X185436057Y-83300911D01*
X185436057Y-83300911D02*
X185645581Y-83396149D01*
X185645581Y-83396149D02*
X186064629Y-83491387D01*
X186064629Y-83491387D02*
X186378914Y-83491387D01*
X186378914Y-83491387D02*
X186797962Y-83396149D01*
X186797962Y-83396149D02*
X187007486Y-83300911D01*
X187007486Y-83300911D02*
X187217010Y-83110435D01*
X187217010Y-83110435D02*
X187321771Y-82824720D01*
X187321771Y-82824720D02*
X187321771Y-82634244D01*
X187321771Y-82634244D02*
X187217010Y-82348530D01*
X187217010Y-82348530D02*
X187112248Y-82253292D01*
X187112248Y-82253292D02*
X186378914Y-82253292D01*
X186378914Y-82253292D02*
X186378914Y-82634244D01*
X188768410Y-85205673D02*
X188663648Y-85396149D01*
X188663648Y-85396149D02*
X188663648Y-85681863D01*
X188663648Y-85681863D02*
X188768410Y-85967578D01*
X188768410Y-85967578D02*
X188977934Y-86158054D01*
X188977934Y-86158054D02*
X189187458Y-86253292D01*
X189187458Y-86253292D02*
X189606506Y-86348530D01*
X189606506Y-86348530D02*
X189920791Y-86348530D01*
X189920791Y-86348530D02*
X190339839Y-86253292D01*
X190339839Y-86253292D02*
X190549363Y-86158054D01*
X190549363Y-86158054D02*
X190758887Y-85967578D01*
X190758887Y-85967578D02*
X190863648Y-85681863D01*
X190863648Y-85681863D02*
X190863648Y-85491387D01*
X190863648Y-85491387D02*
X190758887Y-85205673D01*
X190758887Y-85205673D02*
X190654125Y-85110435D01*
X190654125Y-85110435D02*
X189920791Y-85110435D01*
X189920791Y-85110435D02*
X189920791Y-85491387D01*
X190863648Y-84253292D02*
X188663648Y-84253292D01*
X188663648Y-84253292D02*
X190863648Y-83110435D01*
X190863648Y-83110435D02*
X188663648Y-83110435D01*
X190863648Y-82158054D02*
X188663648Y-82158054D01*
X188663648Y-82158054D02*
X188663648Y-81681864D01*
X188663648Y-81681864D02*
X188768410Y-81396149D01*
X188768410Y-81396149D02*
X188977934Y-81205673D01*
X188977934Y-81205673D02*
X189187458Y-81110435D01*
X189187458Y-81110435D02*
X189606506Y-81015197D01*
X189606506Y-81015197D02*
X189920791Y-81015197D01*
X189920791Y-81015197D02*
X190339839Y-81110435D01*
X190339839Y-81110435D02*
X190549363Y-81205673D01*
X190549363Y-81205673D02*
X190758887Y-81396149D01*
X190758887Y-81396149D02*
X190863648Y-81681864D01*
X190863648Y-81681864D02*
X190863648Y-82158054D01*
X139579894Y-86443768D02*
X139579894Y-85205673D01*
X139579894Y-85205673D02*
X140417990Y-85872340D01*
X140417990Y-85872340D02*
X140417990Y-85586625D01*
X140417990Y-85586625D02*
X140522752Y-85396149D01*
X140522752Y-85396149D02*
X140627513Y-85300911D01*
X140627513Y-85300911D02*
X140837037Y-85205673D01*
X140837037Y-85205673D02*
X141360847Y-85205673D01*
X141360847Y-85205673D02*
X141570371Y-85300911D01*
X141570371Y-85300911D02*
X141675133Y-85396149D01*
X141675133Y-85396149D02*
X141779894Y-85586625D01*
X141779894Y-85586625D02*
X141779894Y-86158054D01*
X141779894Y-86158054D02*
X141675133Y-86348530D01*
X141675133Y-86348530D02*
X141570371Y-86443768D01*
X139579894Y-84634244D02*
X141779894Y-83967578D01*
X141779894Y-83967578D02*
X139579894Y-83300911D01*
X145217010Y-86348530D02*
X145321771Y-86062816D01*
X145321771Y-86062816D02*
X145321771Y-85586625D01*
X145321771Y-85586625D02*
X145217010Y-85396149D01*
X145217010Y-85396149D02*
X145112248Y-85300911D01*
X145112248Y-85300911D02*
X144902724Y-85205673D01*
X144902724Y-85205673D02*
X144693200Y-85205673D01*
X144693200Y-85205673D02*
X144483676Y-85300911D01*
X144483676Y-85300911D02*
X144378914Y-85396149D01*
X144378914Y-85396149D02*
X144274152Y-85586625D01*
X144274152Y-85586625D02*
X144169390Y-85967578D01*
X144169390Y-85967578D02*
X144064629Y-86158054D01*
X144064629Y-86158054D02*
X143959867Y-86253292D01*
X143959867Y-86253292D02*
X143750343Y-86348530D01*
X143750343Y-86348530D02*
X143540819Y-86348530D01*
X143540819Y-86348530D02*
X143331295Y-86253292D01*
X143331295Y-86253292D02*
X143226533Y-86158054D01*
X143226533Y-86158054D02*
X143121771Y-85967578D01*
X143121771Y-85967578D02*
X143121771Y-85491387D01*
X143121771Y-85491387D02*
X143226533Y-85205673D01*
X145321771Y-84348530D02*
X143121771Y-84348530D01*
X143226533Y-82348530D02*
X143121771Y-82539006D01*
X143121771Y-82539006D02*
X143121771Y-82824720D01*
X143121771Y-82824720D02*
X143226533Y-83110435D01*
X143226533Y-83110435D02*
X143436057Y-83300911D01*
X143436057Y-83300911D02*
X143645581Y-83396149D01*
X143645581Y-83396149D02*
X144064629Y-83491387D01*
X144064629Y-83491387D02*
X144378914Y-83491387D01*
X144378914Y-83491387D02*
X144797962Y-83396149D01*
X144797962Y-83396149D02*
X145007486Y-83300911D01*
X145007486Y-83300911D02*
X145217010Y-83110435D01*
X145217010Y-83110435D02*
X145321771Y-82824720D01*
X145321771Y-82824720D02*
X145321771Y-82634244D01*
X145321771Y-82634244D02*
X145217010Y-82348530D01*
X145217010Y-82348530D02*
X145112248Y-82253292D01*
X145112248Y-82253292D02*
X144378914Y-82253292D01*
X144378914Y-82253292D02*
X144378914Y-82634244D01*
X146768410Y-85205673D02*
X146663648Y-85396149D01*
X146663648Y-85396149D02*
X146663648Y-85681863D01*
X146663648Y-85681863D02*
X146768410Y-85967578D01*
X146768410Y-85967578D02*
X146977934Y-86158054D01*
X146977934Y-86158054D02*
X147187458Y-86253292D01*
X147187458Y-86253292D02*
X147606506Y-86348530D01*
X147606506Y-86348530D02*
X147920791Y-86348530D01*
X147920791Y-86348530D02*
X148339839Y-86253292D01*
X148339839Y-86253292D02*
X148549363Y-86158054D01*
X148549363Y-86158054D02*
X148758887Y-85967578D01*
X148758887Y-85967578D02*
X148863648Y-85681863D01*
X148863648Y-85681863D02*
X148863648Y-85491387D01*
X148863648Y-85491387D02*
X148758887Y-85205673D01*
X148758887Y-85205673D02*
X148654125Y-85110435D01*
X148654125Y-85110435D02*
X147920791Y-85110435D01*
X147920791Y-85110435D02*
X147920791Y-85491387D01*
X148863648Y-84253292D02*
X146663648Y-84253292D01*
X146663648Y-84253292D02*
X148863648Y-83110435D01*
X148863648Y-83110435D02*
X146663648Y-83110435D01*
X148863648Y-82158054D02*
X146663648Y-82158054D01*
X146663648Y-82158054D02*
X146663648Y-81681864D01*
X146663648Y-81681864D02*
X146768410Y-81396149D01*
X146768410Y-81396149D02*
X146977934Y-81205673D01*
X146977934Y-81205673D02*
X147187458Y-81110435D01*
X147187458Y-81110435D02*
X147606506Y-81015197D01*
X147606506Y-81015197D02*
X147920791Y-81015197D01*
X147920791Y-81015197D02*
X148339839Y-81110435D01*
X148339839Y-81110435D02*
X148549363Y-81205673D01*
X148549363Y-81205673D02*
X148758887Y-81396149D01*
X148758887Y-81396149D02*
X148863648Y-81681864D01*
X148863648Y-81681864D02*
X148863648Y-82158054D01*
X167579894Y-86443768D02*
X167579894Y-85205673D01*
X167579894Y-85205673D02*
X168417990Y-85872340D01*
X168417990Y-85872340D02*
X168417990Y-85586625D01*
X168417990Y-85586625D02*
X168522752Y-85396149D01*
X168522752Y-85396149D02*
X168627513Y-85300911D01*
X168627513Y-85300911D02*
X168837037Y-85205673D01*
X168837037Y-85205673D02*
X169360847Y-85205673D01*
X169360847Y-85205673D02*
X169570371Y-85300911D01*
X169570371Y-85300911D02*
X169675133Y-85396149D01*
X169675133Y-85396149D02*
X169779894Y-85586625D01*
X169779894Y-85586625D02*
X169779894Y-86158054D01*
X169779894Y-86158054D02*
X169675133Y-86348530D01*
X169675133Y-86348530D02*
X169570371Y-86443768D01*
X167579894Y-84634244D02*
X169779894Y-83967578D01*
X169779894Y-83967578D02*
X167579894Y-83300911D01*
X173217010Y-86348530D02*
X173321771Y-86062816D01*
X173321771Y-86062816D02*
X173321771Y-85586625D01*
X173321771Y-85586625D02*
X173217010Y-85396149D01*
X173217010Y-85396149D02*
X173112248Y-85300911D01*
X173112248Y-85300911D02*
X172902724Y-85205673D01*
X172902724Y-85205673D02*
X172693200Y-85205673D01*
X172693200Y-85205673D02*
X172483676Y-85300911D01*
X172483676Y-85300911D02*
X172378914Y-85396149D01*
X172378914Y-85396149D02*
X172274152Y-85586625D01*
X172274152Y-85586625D02*
X172169390Y-85967578D01*
X172169390Y-85967578D02*
X172064629Y-86158054D01*
X172064629Y-86158054D02*
X171959867Y-86253292D01*
X171959867Y-86253292D02*
X171750343Y-86348530D01*
X171750343Y-86348530D02*
X171540819Y-86348530D01*
X171540819Y-86348530D02*
X171331295Y-86253292D01*
X171331295Y-86253292D02*
X171226533Y-86158054D01*
X171226533Y-86158054D02*
X171121771Y-85967578D01*
X171121771Y-85967578D02*
X171121771Y-85491387D01*
X171121771Y-85491387D02*
X171226533Y-85205673D01*
X173321771Y-84348530D02*
X171121771Y-84348530D01*
X171226533Y-82348530D02*
X171121771Y-82539006D01*
X171121771Y-82539006D02*
X171121771Y-82824720D01*
X171121771Y-82824720D02*
X171226533Y-83110435D01*
X171226533Y-83110435D02*
X171436057Y-83300911D01*
X171436057Y-83300911D02*
X171645581Y-83396149D01*
X171645581Y-83396149D02*
X172064629Y-83491387D01*
X172064629Y-83491387D02*
X172378914Y-83491387D01*
X172378914Y-83491387D02*
X172797962Y-83396149D01*
X172797962Y-83396149D02*
X173007486Y-83300911D01*
X173007486Y-83300911D02*
X173217010Y-83110435D01*
X173217010Y-83110435D02*
X173321771Y-82824720D01*
X173321771Y-82824720D02*
X173321771Y-82634244D01*
X173321771Y-82634244D02*
X173217010Y-82348530D01*
X173217010Y-82348530D02*
X173112248Y-82253292D01*
X173112248Y-82253292D02*
X172378914Y-82253292D01*
X172378914Y-82253292D02*
X172378914Y-82634244D01*
X174768410Y-85205673D02*
X174663648Y-85396149D01*
X174663648Y-85396149D02*
X174663648Y-85681863D01*
X174663648Y-85681863D02*
X174768410Y-85967578D01*
X174768410Y-85967578D02*
X174977934Y-86158054D01*
X174977934Y-86158054D02*
X175187458Y-86253292D01*
X175187458Y-86253292D02*
X175606506Y-86348530D01*
X175606506Y-86348530D02*
X175920791Y-86348530D01*
X175920791Y-86348530D02*
X176339839Y-86253292D01*
X176339839Y-86253292D02*
X176549363Y-86158054D01*
X176549363Y-86158054D02*
X176758887Y-85967578D01*
X176758887Y-85967578D02*
X176863648Y-85681863D01*
X176863648Y-85681863D02*
X176863648Y-85491387D01*
X176863648Y-85491387D02*
X176758887Y-85205673D01*
X176758887Y-85205673D02*
X176654125Y-85110435D01*
X176654125Y-85110435D02*
X175920791Y-85110435D01*
X175920791Y-85110435D02*
X175920791Y-85491387D01*
X176863648Y-84253292D02*
X174663648Y-84253292D01*
X174663648Y-84253292D02*
X176863648Y-83110435D01*
X176863648Y-83110435D02*
X174663648Y-83110435D01*
X176863648Y-82158054D02*
X174663648Y-82158054D01*
X174663648Y-82158054D02*
X174663648Y-81681864D01*
X174663648Y-81681864D02*
X174768410Y-81396149D01*
X174768410Y-81396149D02*
X174977934Y-81205673D01*
X174977934Y-81205673D02*
X175187458Y-81110435D01*
X175187458Y-81110435D02*
X175606506Y-81015197D01*
X175606506Y-81015197D02*
X175920791Y-81015197D01*
X175920791Y-81015197D02*
X176339839Y-81110435D01*
X176339839Y-81110435D02*
X176549363Y-81205673D01*
X176549363Y-81205673D02*
X176758887Y-81396149D01*
X176758887Y-81396149D02*
X176863648Y-81681864D01*
X176863648Y-81681864D02*
X176863648Y-82158054D01*
M02*
