%TF.GenerationSoftware,KiCad,Pcbnew,8.0.4*%
%TF.CreationDate,2024-08-01T20:41:30-04:00*%
%TF.ProjectId,esptemp8c_panel2,65737074-656d-4703-9863-5f70616e656c,rev?*%
%TF.SameCoordinates,Original*%
%TF.FileFunction,Legend,Bot*%
%TF.FilePolarity,Positive*%
%FSLAX46Y46*%
G04 Gerber Fmt 4.6, Leading zero omitted, Abs format (unit mm)*
G04 Created by KiCad (PCBNEW 8.0.4) date 2024-08-01 20:41:30*
%MOMM*%
%LPD*%
G01*
G04 APERTURE LIST*
%ADD10C,0.300000*%
G04 APERTURE END LIST*
D10*
X172055267Y-83044493D02*
X172198124Y-83115921D01*
X172198124Y-83115921D02*
X172483839Y-83115921D01*
X172483839Y-83115921D02*
X172626696Y-83044493D01*
X172626696Y-83044493D02*
X172698124Y-82901635D01*
X172698124Y-82901635D02*
X172698124Y-82330207D01*
X172698124Y-82330207D02*
X172626696Y-82187350D01*
X172626696Y-82187350D02*
X172483839Y-82115921D01*
X172483839Y-82115921D02*
X172198124Y-82115921D01*
X172198124Y-82115921D02*
X172055267Y-82187350D01*
X172055267Y-82187350D02*
X171983839Y-82330207D01*
X171983839Y-82330207D02*
X171983839Y-82473064D01*
X171983839Y-82473064D02*
X172698124Y-82615921D01*
X171412410Y-83044493D02*
X171269553Y-83115921D01*
X171269553Y-83115921D02*
X170983839Y-83115921D01*
X170983839Y-83115921D02*
X170840982Y-83044493D01*
X170840982Y-83044493D02*
X170769553Y-82901635D01*
X170769553Y-82901635D02*
X170769553Y-82830207D01*
X170769553Y-82830207D02*
X170840982Y-82687350D01*
X170840982Y-82687350D02*
X170983839Y-82615921D01*
X170983839Y-82615921D02*
X171198125Y-82615921D01*
X171198125Y-82615921D02*
X171340982Y-82544493D01*
X171340982Y-82544493D02*
X171412410Y-82401635D01*
X171412410Y-82401635D02*
X171412410Y-82330207D01*
X171412410Y-82330207D02*
X171340982Y-82187350D01*
X171340982Y-82187350D02*
X171198125Y-82115921D01*
X171198125Y-82115921D02*
X170983839Y-82115921D01*
X170983839Y-82115921D02*
X170840982Y-82187350D01*
X170126696Y-82115921D02*
X170126696Y-83615921D01*
X170126696Y-82187350D02*
X169983839Y-82115921D01*
X169983839Y-82115921D02*
X169698124Y-82115921D01*
X169698124Y-82115921D02*
X169555267Y-82187350D01*
X169555267Y-82187350D02*
X169483839Y-82258778D01*
X169483839Y-82258778D02*
X169412410Y-82401635D01*
X169412410Y-82401635D02*
X169412410Y-82830207D01*
X169412410Y-82830207D02*
X169483839Y-82973064D01*
X169483839Y-82973064D02*
X169555267Y-83044493D01*
X169555267Y-83044493D02*
X169698124Y-83115921D01*
X169698124Y-83115921D02*
X169983839Y-83115921D01*
X169983839Y-83115921D02*
X170126696Y-83044493D01*
X168983838Y-82115921D02*
X168412410Y-82115921D01*
X168769553Y-81615921D02*
X168769553Y-82901635D01*
X168769553Y-82901635D02*
X168698124Y-83044493D01*
X168698124Y-83044493D02*
X168555267Y-83115921D01*
X168555267Y-83115921D02*
X168412410Y-83115921D01*
X167340981Y-83044493D02*
X167483838Y-83115921D01*
X167483838Y-83115921D02*
X167769553Y-83115921D01*
X167769553Y-83115921D02*
X167912410Y-83044493D01*
X167912410Y-83044493D02*
X167983838Y-82901635D01*
X167983838Y-82901635D02*
X167983838Y-82330207D01*
X167983838Y-82330207D02*
X167912410Y-82187350D01*
X167912410Y-82187350D02*
X167769553Y-82115921D01*
X167769553Y-82115921D02*
X167483838Y-82115921D01*
X167483838Y-82115921D02*
X167340981Y-82187350D01*
X167340981Y-82187350D02*
X167269553Y-82330207D01*
X167269553Y-82330207D02*
X167269553Y-82473064D01*
X167269553Y-82473064D02*
X167983838Y-82615921D01*
X166626696Y-83115921D02*
X166626696Y-82115921D01*
X166626696Y-82258778D02*
X166555267Y-82187350D01*
X166555267Y-82187350D02*
X166412410Y-82115921D01*
X166412410Y-82115921D02*
X166198124Y-82115921D01*
X166198124Y-82115921D02*
X166055267Y-82187350D01*
X166055267Y-82187350D02*
X165983839Y-82330207D01*
X165983839Y-82330207D02*
X165983839Y-83115921D01*
X165983839Y-82330207D02*
X165912410Y-82187350D01*
X165912410Y-82187350D02*
X165769553Y-82115921D01*
X165769553Y-82115921D02*
X165555267Y-82115921D01*
X165555267Y-82115921D02*
X165412410Y-82187350D01*
X165412410Y-82187350D02*
X165340981Y-82330207D01*
X165340981Y-82330207D02*
X165340981Y-83115921D01*
X164626696Y-82115921D02*
X164626696Y-83615921D01*
X164626696Y-82187350D02*
X164483839Y-82115921D01*
X164483839Y-82115921D02*
X164198124Y-82115921D01*
X164198124Y-82115921D02*
X164055267Y-82187350D01*
X164055267Y-82187350D02*
X163983839Y-82258778D01*
X163983839Y-82258778D02*
X163912410Y-82401635D01*
X163912410Y-82401635D02*
X163912410Y-82830207D01*
X163912410Y-82830207D02*
X163983839Y-82973064D01*
X163983839Y-82973064D02*
X164055267Y-83044493D01*
X164055267Y-83044493D02*
X164198124Y-83115921D01*
X164198124Y-83115921D02*
X164483839Y-83115921D01*
X164483839Y-83115921D02*
X164626696Y-83044493D01*
X163055267Y-82258778D02*
X163198124Y-82187350D01*
X163198124Y-82187350D02*
X163269553Y-82115921D01*
X163269553Y-82115921D02*
X163340981Y-81973064D01*
X163340981Y-81973064D02*
X163340981Y-81901635D01*
X163340981Y-81901635D02*
X163269553Y-81758778D01*
X163269553Y-81758778D02*
X163198124Y-81687350D01*
X163198124Y-81687350D02*
X163055267Y-81615921D01*
X163055267Y-81615921D02*
X162769553Y-81615921D01*
X162769553Y-81615921D02*
X162626696Y-81687350D01*
X162626696Y-81687350D02*
X162555267Y-81758778D01*
X162555267Y-81758778D02*
X162483838Y-81901635D01*
X162483838Y-81901635D02*
X162483838Y-81973064D01*
X162483838Y-81973064D02*
X162555267Y-82115921D01*
X162555267Y-82115921D02*
X162626696Y-82187350D01*
X162626696Y-82187350D02*
X162769553Y-82258778D01*
X162769553Y-82258778D02*
X163055267Y-82258778D01*
X163055267Y-82258778D02*
X163198124Y-82330207D01*
X163198124Y-82330207D02*
X163269553Y-82401635D01*
X163269553Y-82401635D02*
X163340981Y-82544493D01*
X163340981Y-82544493D02*
X163340981Y-82830207D01*
X163340981Y-82830207D02*
X163269553Y-82973064D01*
X163269553Y-82973064D02*
X163198124Y-83044493D01*
X163198124Y-83044493D02*
X163055267Y-83115921D01*
X163055267Y-83115921D02*
X162769553Y-83115921D01*
X162769553Y-83115921D02*
X162626696Y-83044493D01*
X162626696Y-83044493D02*
X162555267Y-82973064D01*
X162555267Y-82973064D02*
X162483838Y-82830207D01*
X162483838Y-82830207D02*
X162483838Y-82544493D01*
X162483838Y-82544493D02*
X162555267Y-82401635D01*
X162555267Y-82401635D02*
X162626696Y-82330207D01*
X162626696Y-82330207D02*
X162769553Y-82258778D01*
X161198125Y-83044493D02*
X161340982Y-83115921D01*
X161340982Y-83115921D02*
X161626696Y-83115921D01*
X161626696Y-83115921D02*
X161769553Y-83044493D01*
X161769553Y-83044493D02*
X161840982Y-82973064D01*
X161840982Y-82973064D02*
X161912410Y-82830207D01*
X161912410Y-82830207D02*
X161912410Y-82401635D01*
X161912410Y-82401635D02*
X161840982Y-82258778D01*
X161840982Y-82258778D02*
X161769553Y-82187350D01*
X161769553Y-82187350D02*
X161626696Y-82115921D01*
X161626696Y-82115921D02*
X161340982Y-82115921D01*
X161340982Y-82115921D02*
X161198125Y-82187350D01*
X159555268Y-82115921D02*
X159198125Y-83115921D01*
X159198125Y-83115921D02*
X158840982Y-82115921D01*
X158340982Y-81758778D02*
X158269554Y-81687350D01*
X158269554Y-81687350D02*
X158126697Y-81615921D01*
X158126697Y-81615921D02*
X157769554Y-81615921D01*
X157769554Y-81615921D02*
X157626697Y-81687350D01*
X157626697Y-81687350D02*
X157555268Y-81758778D01*
X157555268Y-81758778D02*
X157483839Y-81901635D01*
X157483839Y-81901635D02*
X157483839Y-82044493D01*
X157483839Y-82044493D02*
X157555268Y-82258778D01*
X157555268Y-82258778D02*
X158412411Y-83115921D01*
X158412411Y-83115921D02*
X157483839Y-83115921D01*
X172019554Y-84030837D02*
X172019554Y-85102266D01*
X172019554Y-85102266D02*
X172090983Y-85316551D01*
X172090983Y-85316551D02*
X172233840Y-85459409D01*
X172233840Y-85459409D02*
X172448126Y-85530837D01*
X172448126Y-85530837D02*
X172590983Y-85530837D01*
X170590983Y-85530837D02*
X171305269Y-85530837D01*
X171305269Y-85530837D02*
X171305269Y-84030837D01*
X169233840Y-85387980D02*
X169305268Y-85459409D01*
X169305268Y-85459409D02*
X169519554Y-85530837D01*
X169519554Y-85530837D02*
X169662411Y-85530837D01*
X169662411Y-85530837D02*
X169876697Y-85459409D01*
X169876697Y-85459409D02*
X170019554Y-85316551D01*
X170019554Y-85316551D02*
X170090983Y-85173694D01*
X170090983Y-85173694D02*
X170162411Y-84887980D01*
X170162411Y-84887980D02*
X170162411Y-84673694D01*
X170162411Y-84673694D02*
X170090983Y-84387980D01*
X170090983Y-84387980D02*
X170019554Y-84245123D01*
X170019554Y-84245123D02*
X169876697Y-84102266D01*
X169876697Y-84102266D02*
X169662411Y-84030837D01*
X169662411Y-84030837D02*
X169519554Y-84030837D01*
X169519554Y-84030837D02*
X169305268Y-84102266D01*
X169305268Y-84102266D02*
X169233840Y-84173694D01*
X168162411Y-84030837D02*
X168162411Y-85102266D01*
X168162411Y-85102266D02*
X168233840Y-85316551D01*
X168233840Y-85316551D02*
X168376697Y-85459409D01*
X168376697Y-85459409D02*
X168590983Y-85530837D01*
X168590983Y-85530837D02*
X168733840Y-85530837D01*
X166733840Y-85530837D02*
X167448126Y-85530837D01*
X167448126Y-85530837D02*
X167448126Y-84030837D01*
X165376697Y-85387980D02*
X165448125Y-85459409D01*
X165448125Y-85459409D02*
X165662411Y-85530837D01*
X165662411Y-85530837D02*
X165805268Y-85530837D01*
X165805268Y-85530837D02*
X166019554Y-85459409D01*
X166019554Y-85459409D02*
X166162411Y-85316551D01*
X166162411Y-85316551D02*
X166233840Y-85173694D01*
X166233840Y-85173694D02*
X166305268Y-84887980D01*
X166305268Y-84887980D02*
X166305268Y-84673694D01*
X166305268Y-84673694D02*
X166233840Y-84387980D01*
X166233840Y-84387980D02*
X166162411Y-84245123D01*
X166162411Y-84245123D02*
X166019554Y-84102266D01*
X166019554Y-84102266D02*
X165805268Y-84030837D01*
X165805268Y-84030837D02*
X165662411Y-84030837D01*
X165662411Y-84030837D02*
X165448125Y-84102266D01*
X165448125Y-84102266D02*
X165376697Y-84173694D01*
X164305268Y-84030837D02*
X164305268Y-85102266D01*
X164305268Y-85102266D02*
X164376697Y-85316551D01*
X164376697Y-85316551D02*
X164519554Y-85459409D01*
X164519554Y-85459409D02*
X164733840Y-85530837D01*
X164733840Y-85530837D02*
X164876697Y-85530837D01*
X162876697Y-85530837D02*
X163590983Y-85530837D01*
X163590983Y-85530837D02*
X163590983Y-84030837D01*
X161519554Y-85387980D02*
X161590982Y-85459409D01*
X161590982Y-85459409D02*
X161805268Y-85530837D01*
X161805268Y-85530837D02*
X161948125Y-85530837D01*
X161948125Y-85530837D02*
X162162411Y-85459409D01*
X162162411Y-85459409D02*
X162305268Y-85316551D01*
X162305268Y-85316551D02*
X162376697Y-85173694D01*
X162376697Y-85173694D02*
X162448125Y-84887980D01*
X162448125Y-84887980D02*
X162448125Y-84673694D01*
X162448125Y-84673694D02*
X162376697Y-84387980D01*
X162376697Y-84387980D02*
X162305268Y-84245123D01*
X162305268Y-84245123D02*
X162162411Y-84102266D01*
X162162411Y-84102266D02*
X161948125Y-84030837D01*
X161948125Y-84030837D02*
X161805268Y-84030837D01*
X161805268Y-84030837D02*
X161590982Y-84102266D01*
X161590982Y-84102266D02*
X161519554Y-84173694D01*
X160448125Y-84030837D02*
X160448125Y-85102266D01*
X160448125Y-85102266D02*
X160519554Y-85316551D01*
X160519554Y-85316551D02*
X160662411Y-85459409D01*
X160662411Y-85459409D02*
X160876697Y-85530837D01*
X160876697Y-85530837D02*
X161019554Y-85530837D01*
X159019554Y-85530837D02*
X159733840Y-85530837D01*
X159733840Y-85530837D02*
X159733840Y-84030837D01*
X157662411Y-85387980D02*
X157733839Y-85459409D01*
X157733839Y-85459409D02*
X157948125Y-85530837D01*
X157948125Y-85530837D02*
X158090982Y-85530837D01*
X158090982Y-85530837D02*
X158305268Y-85459409D01*
X158305268Y-85459409D02*
X158448125Y-85316551D01*
X158448125Y-85316551D02*
X158519554Y-85173694D01*
X158519554Y-85173694D02*
X158590982Y-84887980D01*
X158590982Y-84887980D02*
X158590982Y-84673694D01*
X158590982Y-84673694D02*
X158519554Y-84387980D01*
X158519554Y-84387980D02*
X158448125Y-84245123D01*
X158448125Y-84245123D02*
X158305268Y-84102266D01*
X158305268Y-84102266D02*
X158090982Y-84030837D01*
X158090982Y-84030837D02*
X157948125Y-84030837D01*
X157948125Y-84030837D02*
X157733839Y-84102266D01*
X157733839Y-84102266D02*
X157662411Y-84173694D01*
M02*
